<svg width="2048" height="2048" viewBox="0 0 2048 2048" fill="none" xmlns="http://www.w3.org/2000/svg">
<style>
  stop {
    stop-color: #06B6D4;
  }
  stop[offset="1"] {
    stop-color: #D946EF;
  }

  @media (prefers-color-scheme: dark) {
    stop {
      stop-color: #A78BFA;
    }
    stop[offset="1"] {
      stop-color: #2DD4BF;
    }
  }
</style>
<g clip-path="url(#clip0_2_4)">
<path fill-rule="evenodd" clip-rule="evenodd" d="M795.515 0.0130212C782.235 1.09304 741.834 68.6143 649.673 257.298C555.511 450.102 489.47 577.744 446.469 671.066C94.1018 817.229 -72.7015 803.668 323.746 990.792C358.627 1007.27 391.508 1022.19 422.868 1035.87C423.148 1036.51 423.348 1037.07 423.588 1037.71C264.785 1184 200.384 1225.72 504.35 1359.52C504.19 1361.6 503.87 1363.08 503.71 1365.08C553.271 1361.48 598.032 1355.8 611.752 1343.68C630.432 1327.2 636.432 1308.92 639.112 1272.56C413.948 1173.44 461.629 1142.55 579.271 1034.19C579.071 1033.71 578.951 1033.27 578.751 1032.83C555.511 1022.67 531.15 1011.63 505.27 999.432C211.584 860.829 335.186 870.87 596.192 762.628C628.032 693.506 676.993 598.904 746.755 456.102C757.955 433.181 766.555 416.261 775.755 397.981C770.355 394.741 764.435 391.061 759.395 388.22C756.515 384.06 753.795 379.7 751.315 374.74C722.554 316.819 824.716 -2.34702 795.515 0.0130212ZM1438.97 173.256C1405.13 171.736 1346.45 227.577 1237.44 356.22C1231.64 363.06 1227 369.06 1221.4 375.74C1161 365.22 1114.44 359.3 1075.56 358.74C988.199 357.42 939.478 383.42 860.677 443.621C853.717 441.421 843.756 438.501 837.676 436.421C834.876 434.621 832.396 433.101 829.636 431.341C820.116 480.862 813.796 526.503 822.036 543.063C823.836 546.703 825.876 549.983 827.996 553.064C844.876 562.584 864.517 575.104 885.957 588.784C890.477 590.304 897.837 592.464 902.998 594.104C961.359 549.544 997.439 530.263 1062.16 531.223C1090.96 531.663 1125.44 536.023 1170.2 543.823C1174.32 538.863 1177.84 534.463 1182.12 529.383C1366.65 311.579 1356.61 375.54 1376.57 584.384C1414.93 592.144 1453.65 599.984 1500.81 609.185C1522.65 613.425 1540.25 617.105 1558.29 620.825C1563.65 610.225 1570.81 601.184 1580.57 592.584C1651.09 530.343 2327.27 592.584 1667.69 463.982C1604.01 451.582 1551.77 440.941 1500.01 430.461C1484.81 271.898 1482.45 175.176 1438.97 173.256ZM1544.33 683.026C1494.77 686.626 1450.01 692.306 1436.29 704.426C1417.61 720.907 1411.61 739.147 1408.93 775.428C1634.17 874.59 1586.45 905.51 1468.81 1013.87C1469.05 1014.39 1469.17 1014.83 1469.41 1015.39C1492.61 1025.51 1516.93 1036.51 1542.73 1048.71C1836.42 1187.32 1712.77 1177.28 1451.73 1285.56C1419.89 1354.72 1371.25 1449 1301.41 1591.96C1290.57 1614.12 1281.4 1632.36 1272.44 1650.16C1277.92 1653.4 1283.89 1657.12 1289.01 1660C1291.81 1664.08 1294.41 1668.4 1296.81 1673.24C1338.65 1757.49 1103.6 2394.5 1398.49 1790.73C1492.77 1597.72 1558.49 1470.44 1601.49 1377.08C1953.9 1230.92 2120.78 1244.48 1724.33 1057.31C1689.49 1040.87 1656.69 1026.03 1625.37 1012.35C1625.09 1011.63 1624.85 1011.03 1624.53 1010.27C1783.33 863.949 1847.78 822.229 1543.69 688.386C1543.85 686.346 1544.17 684.946 1544.33 682.986V683.026ZM1116 715.827C1072.36 719.307 993.439 835.909 957.279 854.309C918.718 873.95 761.115 867.19 747.755 908.35C734.354 949.511 865.757 1036.71 885.397 1075.27C905.038 1113.83 898.277 1271.44 939.438 1284.8C980.599 1298.16 1067.8 1166.8 1106.36 1147.15C1144.92 1127.51 1302.53 1134.27 1315.89 1093.11C1329.29 1051.95 1197.88 964.751 1178.24 926.191C1158.6 887.63 1165.36 730.027 1124.2 716.667C1121.64 715.827 1118.92 715.547 1116 715.787V715.827ZM489.71 1427.32C484.349 1437.92 477.189 1446.92 467.429 1455.56C396.908 1517.8 -279.266 1455.56 380.307 1584.16C451.629 1598.08 491.59 1606.32 548.111 1617.76C575.071 1899.57 561.631 1985.89 810.676 1691.89C816.516 1685.01 821.236 1678.97 826.836 1672.2C1022.24 1706.09 1073.76 1691.29 1187.48 1604.4C1194.16 1606.52 1203.92 1609.36 1209.8 1611.36C1212.8 1613.28 1215.44 1614.88 1218.36 1616.76C1227.88 1567.2 1234.32 1521.52 1226.04 1504.92C1224.24 1501.32 1222.32 1498.12 1220.28 1495.12C1203.24 1485.52 1183.36 1472.96 1161.6 1459.08C1157.24 1457.6 1150 1455.48 1145.04 1453.92C1060.8 1518.24 1022.64 1529.24 877.877 1504.16C873.717 1509.16 870.237 1513.6 865.917 1518.68C681.433 1736.49 691.393 1672.57 671.393 1463.84C629.552 1455.36 599.952 1449.24 547.111 1438.96C525.27 1434.72 507.67 1431.04 489.63 1427.32H489.71Z" fill="url(#paint0_linear_2_4)"/>
</g>
<defs>
<linearGradient id="paint0_linear_2_4" x1="93.8618" y1="1024.03" x2="1954.18" y2="1024.03" gradientUnits="userSpaceOnUse">
<stop/>
<stop offset="1"/>
</linearGradient>
<clipPath id="clip0_2_4">
<rect width="2048" height="2048" fill="white"/>
</clipPath>
</defs>
</svg>
