<?xml version="1.0" encoding="utf-8"?>
<!-- Generator: Adobe Illustrator 24.0.2, SVG Export Plug-In . SVG Version: 6.00 Build 0)  -->
<svg version="1.1" id="Capa_1" xmlns="http://www.w3.org/2000/svg" xmlns:xlink="http://www.w3.org/1999/xlink" x="0px" y="0px"
	 viewBox="0 0 320.04 288.19" style="enable-background:new 0 0 320.04 288.19; background-color: #ffffff;" xml:space="preserve">
<style type="text/css">
	.st0{fill:#DF5656;}
	.st1{fill:#EFC52F;}
	.st2{fill:#444FCC;}
	.st3{fill:#EBB3B2;}
	.st4{fill:#B6BABD;}
	.st5{fill:#0B003A;}
	.st6{fill:#FFFFFF;}
	.st7{fill:#C6A527;}
	.st8{fill:#B74A4A;}
	.st9{fill:#AB8484;}
	.st10{fill:#9392A8;}
	.st11{fill:#353D97;}
	.st12{fill:#A4A6AB;}
</style>
<g>
	<g>
		<path class="st0" d="M161.07,128.31c-17.41,0-31.58-14.17-31.58-31.58s14.17-31.58,31.58-31.58c17.41,0,31.58,14.17,31.58,31.58
			S178.48,128.31,161.07,128.31z M161.07,81.99c-8.12,0-14.74,6.61-14.74,14.74s6.61,14.74,14.74,14.74s14.74-6.61,14.74-14.74
			S169.2,81.99,161.07,81.99z"/>
	</g>
	<g>
		<path class="st8" d="M120.02,178.12l10.02-10.02c0.65-0.65,1.33-1.28,2.02-1.87l8.21,8.21c0.25,0.25,0.48,0.51,0.74,0.76
			l-0.76,0.65c-0.44,0.38-0.86,0.78-1.26,1.18l-10.02,10.02c-0.17-0.23-0.38-0.46-0.61-0.69l-8.23-8.23"/>
	</g>
	<g>
		<path class="st8" d="M200.02,178.12l10.02-10.02c0.65-0.65,1.33-1.28,2.02-1.87l8.21,8.21c0.25,0.25,0.48,0.51,0.74,0.76
			l-0.78,0.65c-0.42,0.38-0.84,0.78-1.26,1.18l-10,10c-0.19-0.23-0.4-0.46-0.61-0.67l-8.23-8.23"/>
	</g>
	<path class="st0" d="M210.04,168.1l-10.02,10.02h0.11l-8.23,8.23c-0.25,0.25-0.51,0.53-0.72,0.8c-3.79,4.55-3.56,11.37,0.72,15.66
		c2.19,2.17,5.12,3.39,8.23,3.39s6.04-1.22,8.25-3.41c2.17-2.19,3.39-5.12,3.39-8.23c0-2.78-0.99-5.43-2.8-7.54l10-10
		c0.42-0.4,0.84-0.8,1.26-1.18l0.78-0.65c4.91,5.26,7.6,12.13,7.6,19.37c0,7.62-2.97,14.78-8.34,20.15
		c-5.41,5.39-12.55,8.34-20.15,8.34c-7.6,0-14.76-2.95-20.13-8.32c-10.82-10.84-11.12-28.25-0.86-39.41
		c0.27-0.3,0.55-0.59,0.84-0.88l8.11-8.11c-3.26-2.91-6.93-5.26-10.84-7.01c-5.35-2.38-11.18-3.64-17.22-3.64
		c-5.98,0-11.77,1.22-17.07,3.58c-3.94,1.73-7.58,4.06-10.88,6.97c-0.69,0.59-1.37,1.22-2.02,1.87l-10.02,10.02h0.11l-8.23,8.23
		c-0.25,0.25-0.51,0.53-0.72,0.8c-3.79,4.55-3.56,11.37,0.72,15.66c2.19,2.17,5.12,3.39,8.23,3.39c3.12,0,6.04-1.22,8.25-3.41
		c2.17-2.19,3.39-5.12,3.39-8.23c0-2.78-0.99-5.41-2.8-7.52l10.02-10.02c0.4-0.4,0.82-0.8,1.26-1.18l0.76-0.65
		c4.91,5.26,7.6,12.13,7.6,19.37c0,7.62-2.97,14.78-8.34,20.15c-5.41,5.39-12.55,8.34-20.15,8.34c-7.6,0-14.74-2.95-20.13-8.32
		c-10.82-10.84-11.12-28.27-0.86-39.43c0.27-0.29,0.57-0.59,0.84-0.86l8.11-8.11c-3.28-2.93-6.93-5.26-10.86-7.01
		c-5.35-2.38-11.18-3.64-17.2-3.64v-16.84c10.61,0,20.78,2.76,29.7,7.98c3.66,2.11,7.12,4.65,10.3,7.56
		c0.04-0.04,0.06-0.06,0.11-0.08c3.18-2.93,6.63-5.45,10.32-7.56c8.88-5.16,19.03-7.89,29.58-7.89c10.61,0,20.78,2.76,29.7,7.98
		c3.66,2.11,7.12,4.65,10.3,7.56c0.04-0.04,0.06-0.06,0.11-0.08c3.18-2.93,6.63-5.45,10.32-7.56c8.88-5.16,19.03-7.89,29.58-7.89
		v16.84c-5.98,0-11.75,1.22-17.05,3.58c-3.94,1.73-7.6,4.06-10.91,6.97C211.37,166.81,210.69,167.44,210.04,168.1z"/>
</g>
</svg>
