<svg xmlns="http://www.w3.org/2000/svg" viewBox="0 0 24 18">
  <style>
    :root {
      color: #737373;
    }

    @media (prefers-color-scheme: dark) {
      :root {
        color: #a3a3a3
      }
    }
  </style>
  <path
    d="M20 -9.53674e-07H4C3.46957 -9.53674e-07 0.5 -1.90735e-06 4.17233e-07 -1.90735e-06C0 0.499999 0 1.46957 0 2V16C0 16.5304 -7.15256e-07 17.4142 7.15256e-07 18C0.5 18 3.46957 18 4 18H20C20.5304 18 23.5 18 24 18C24 17.5 24 16.5304 24 16V2C24 1.46957 24 0.5 24 0C23.5 -4.76837e-07 20.5304 -9.53674e-07 20 -9.53674e-07ZM14.5 4C14.697 4 14.892 4.0388 15.074 4.11418C15.256 4.18956 15.4214 4.30005 15.5607 4.43934C15.6999 4.57863 15.8104 4.74399 15.8858 4.92597C15.9612 5.10796 16 5.30302 16 5.5C16 5.69698 15.9612 5.89204 15.8858 6.07402C15.8104 6.25601 15.6999 6.42137 15.5607 6.56066C15.4214 6.69995 15.256 6.81044 15.074 6.88582C14.892 6.9612 14.697 7 14.5 7C14.1022 7 13.7206 6.84196 13.4393 6.56066C13.158 6.27935 13 5.89782 13 5.5C13 5.10217 13.158 4.72064 13.4393 4.43934C13.7206 4.15803 14.1022 4 14.5 4ZM18.876 14.481C18.7898 14.638 18.6631 14.769 18.509 14.8603C18.3549 14.9516 18.1791 14.9999 18 15H6C5.82952 15.0001 5.66186 14.9566 5.51293 14.8736C5.364 14.7907 5.23874 14.671 5.14907 14.526C5.05939 14.3811 5.00827 14.2155 5.00056 14.0452C4.99284 13.8749 5.0288 13.7055 5.105 13.553L8.605 6.553C8.68557 6.39153 8.80833 6.25488 8.96026 6.15752C9.11219 6.06017 9.28764 6.00573 9.468 6C9.64992 5.98988 9.83098 6.03146 9.99025 6.11995C10.1495 6.20843 10.2805 6.34019 10.368 6.5L13.143 11.257L14.689 9.37C14.7894 9.2477 14.9174 9.15097 15.0625 9.08777C15.2076 9.02457 15.3656 8.99671 15.5236 9.00647C15.6815 9.01623 15.8349 9.06334 15.9711 9.14392C16.1073 9.22451 16.2224 9.33626 16.307 9.47001L18.848 13.47C18.9421 13.6208 18.9943 13.794 18.9992 13.9717C19.0042 14.1494 18.9616 14.3252 18.876 14.481Z"
    fill="currentColor" />
</svg>